<svg xmlns="http://www.w3.org/2000/svg" viewBox="0 0 120 120" aria-hidden="true">
  <g fill="none" stroke="#ff4b1f" stroke-width="3" stroke-linecap="round" stroke-linejoin="round">
    <path d="M27 98c22-24 36-50 45-82"/>
    <path d="M41 78c-11-3-18-10-20-21 10 1 18 8 20 21z"/>
    <path d="M53 58c-9-4-14-11-14-20 9 2 15 9 14 20z"/>
    <path d="M64 36c-8-4-12-10-11-18 8 2 13 9 11 18z"/>
    <path d="M58 70c10-7 20-8 30-3-7 8-18 10-30 3z"/>
    <path d="M70 48c9-6 18-6 27-2-7 8-16 9-27 2z"/>
    <path d="M76 27c7-5 14-5 21-1-5 6-13 7-21 1z"/>
  </g>
</svg>
